<?xml version="1.0" encoding="utf-8"?>
<!-- Generator: Adobe Illustrator 16.0.0, SVG Export Plug-In . SVG Version: 6.00 Build 0)  -->
<!DOCTYPE svg PUBLIC "-//W3C//DTD SVG 1.1//EN" "http://www.w3.org/Graphics/SVG/1.1/DTD/svg11.dtd">
<svg version="1.1" id="Layer_35" xmlns="http://www.w3.org/2000/svg" xmlns:xlink="http://www.w3.org/1999/xlink" x="0px" y="0px"
	 width="400px" height="400px" viewBox="56 56 400 400" enable-background="new 56 56 400 400" xml:space="preserve">
<path fill="#3B4553" d="M389.451,97.719l-9.593-9.593l-22.341,22.341v19.187L389.451,97.719z"/>
<path fill="#FC6F2A" d="M194.69,303.241c11.222,0,20.353-9.132,20.353-20.354v-67.844c0-33.665-27.396-61.061-61.06-61.061h-13.569
	H120.06c-33.664,0-61.06,27.396-61.06,61.061v20.353c0,11.222,9.132,20.354,20.353,20.354h50.884
	c5.611,0,10.177-4.566,10.177-10.177c0-5.61-4.566-10.177-10.177-10.177H72.569v-13.569h13.569V194.69h81.414v108.551h-20.354v6.785
	v125.513c0,9.35,7.612,16.961,16.961,16.961c9.349,0,16.961-7.611,16.961-16.961V194.69h13.569V303.241z"/>
<path fill="#3B4553" d="M194.69,405.009h183.18v27.138H194.69V405.009z"/>
<path fill="#3B4553" d="M194.69,364.302h183.18v27.138H194.69V364.302z"/>
<path fill="#FC6F2A" d="M130.237,269.319h-30.53v20.353h54.276v-44.099C153.983,258.667,143.331,269.319,130.237,269.319z"/>
<path fill="#FC6F2A" d="M99.707,435.539c0,9.35,7.612,16.961,16.961,16.961s16.961-7.611,16.961-16.961V310.026v-6.785H99.707
	V435.539z"/>
<path fill="#3B4553" d="M391.439,426.949l47.872-28.726l-47.872-28.725V426.949z"/>
<path fill="#FC6F2A" d="M99.707,208.259v13.568h30.53c13.094,0,23.746,10.652,23.746,23.746v-37.314H99.707z"/>
<circle fill="#FC6F2A" cx="140.414" cy="99.707" r="40.707"/>
<path fill="#3B4553" d="M248.965,228.612h108.552v94.983H248.965V228.612z"/>
<path fill="#3B4553" d="M357.518,129.654l-54.275,54.275l-31.936-31.934l9.593-9.594l22.343,22.342l54.275-54.276v-3.976H248.965
	v94.983h108.552V129.654z"/>
<path fill="#3B4553" d="M371.086,228.612H452.5v13.569h-81.414V228.612z"/>
<path fill="#3B4553" d="M371.086,187.905H452.5v13.569h-81.414V187.905z"/>
<path fill="#3B4553" d="M371.086,160.767H452.5v13.569h-81.414V160.767z"/>
<path fill="#3B4553" d="M371.086,133.629H452.5v13.569h-81.414V133.629z"/>
<path fill="#3B4553" d="M398.224,106.491H452.5v13.569h-54.276V106.491z"/>
<path fill="#3B4553" d="M371.086,255.75H452.5v13.569h-81.414V255.75z"/>
<path fill="#3B4553" d="M438.931,282.888H452.5v13.568h-13.569V282.888z"/>
<path fill="#3B4553" d="M371.086,282.888h54.276v13.568h-54.276V282.888z"/>
<path fill="#3B4553" d="M371.086,310.026H452.5v13.569h-81.414V310.026z"/>
</svg>
