<svg id="Icons" height="512" viewBox="0 0 60 60" width="512" xmlns="http://www.w3.org/2000/svg"><path d="m21 56 5 3 1-1v-12l-1-1-5-3-1 1v12z" fill="#1f9b92"/><path d="m2 42h19a0 0 0 0 1 0 0v14a0 0 0 0 1 0 0h-19a1 1 0 0 1 -1-1v-12a1 1 0 0 1 1-1z" fill="#38d6d2"/><path d="m52.857 59h-26.857v-14h26.857a1 1 0 0 1 .759.349l5.143 6a1 1 0 0 1 0 1.3l-5.143 6a1 1 0 0 1 -.759.351z" fill="#2dbab3"/><path d="m21 35 5 3 1-1v-12l-1-1-5-3-1 1v12z" fill="#c43155"/><path d="m2 21h19a0 0 0 0 1 0 0v14a0 0 0 0 1 0 0h-19a1 1 0 0 1 -1-1v-12a1 1 0 0 1 1-1z" fill="#f84861"/><path d="m52.857 38h-26.857v-14h26.857a1 1 0 0 1 .759.349l5.143 6a1 1 0 0 1 0 1.3l-5.143 6a1 1 0 0 1 -.759.351z" fill="#d83a59"/><path d="m21 15 5 3 1-1v-12l-1-1-5-3-1 1v12z" fill="#095fb5"/><path d="m2 1h19a0 0 0 0 1 0 0v14a0 0 0 0 1 0 0h-19a1 1 0 0 1 -1-1v-12a1 1 0 0 1 1-1z" fill="#186fee"/><path d="m52.857 18h-26.857v-14h26.857a1 1 0 0 1 .759.349l5.143 6a1 1 0 0 1 0 1.3l-5.143 6a1 1 0 0 1 -.759.351z" fill="#1169d3"/><g fill="#fff"><path d="m7 53a3 3 0 0 1 -3-3v-2a3 3 0 0 1 6 0v2a3 3 0 0 1 -3 3zm0-6a1 1 0 0 0 -1 1v2a1 1 0 0 0 2 0v-2a1 1 0 0 0 -1-1z"/><path d="m7 4a3 3 0 0 0 -3 3v2a3 3 0 0 0 6 0v-2a3 3 0 0 0 -3-3zm1 5a1 1 0 0 1 -2 0v-2a1 1 0 0 1 2 0z"/><path d="m12 11a1 1 0 0 0 1 1h2a1 1 0 0 0 0-2v-5a1 1 0 0 0 -1.707-.707l-1 1a1 1 0 0 0 .707 1.707v3a1 1 0 0 0 -1 1z"/><path d="m7 24a3 3 0 0 0 -3 3v2a3 3 0 0 0 6 0v-2a3 3 0 0 0 -3-3zm1 5a1 1 0 0 1 -2 0v-2a1 1 0 0 1 2 0z"/><path d="m17 30h-1.454a7.428 7.428 0 0 0 1.454-3.5 2.5 2.5 0 0 0 -2.5-2.5 2.567 2.567 0 0 0 -2.42 1.607 1 1 0 1 0 1.84.786.578.578 0 0 1 .58-.393.5.5 0 0 1 .5.5 6.732 6.732 0 0 1 -2.143 3.51 1 1 0 0 0 .143 1.99h4a1 1 0 0 0 0-2z"/><path d="m14.456 53a2.545 2.545 0 0 1 -2.395-1.658 1 1 0 0 1 1.878-.684.545.545 0 0 0 .517.342.524.524 0 0 0 .544-.5.48.48 0 0 0 -.183-.373 1.465 1.465 0 0 1 0-2.254.48.48 0 0 0 .183-.373.524.524 0 0 0 -.544-.5.545.545 0 0 0 -.517.342 1 1 0 1 1 -1.878-.684 2.55 2.55 0 0 1 4.939.842 2.463 2.463 0 0 1 -.509 1.5 2.463 2.463 0 0 1 .509 1.5 2.525 2.525 0 0 1 -2.544 2.5z"/><path d="m45 10h-8a1 1 0 0 1 0-2h8a1 1 0 0 1 0 2z"/><path d="m51 14h-1a1 1 0 0 1 0-2h1a1 1 0 0 1 0 2z"/><path d="m46 14h-10a1 1 0 0 1 0-2h10a1 1 0 0 1 0 2z"/><path d="m32 14h-2a1 1 0 0 1 0-2h2a1 1 0 0 1 0 2z"/><path d="m45 30h-8a1 1 0 0 1 0-2h8a1 1 0 0 1 0 2z"/><path d="m51 34h-1a1 1 0 0 1 0-2h1a1 1 0 0 1 0 2z"/><path d="m46 34h-10a1 1 0 0 1 0-2h10a1 1 0 0 1 0 2z"/><path d="m32 34h-2a1 1 0 0 1 0-2h2a1 1 0 0 1 0 2z"/><path d="m45 51h-8a1 1 0 0 1 0-2h8a1 1 0 0 1 0 2z"/><path d="m51 55h-1a1 1 0 0 1 0-2h1a1 1 0 0 1 0 2z"/><path d="m46 55h-10a1 1 0 0 1 0-2h10a1 1 0 0 1 0 2z"/><path d="m32 55h-2a1 1 0 0 1 0-2h2a1 1 0 0 1 0 2z"/></g></svg>