<svg id="Capa_1" enable-background="new 0 0 512 512" height="512" viewBox="0 0 512 512" width="512" xmlns="http://www.w3.org/2000/svg"><path d="m374.212 504.5h-224c-16.569 0-30-13.431-30-30v-437c0-16.569 13.431-30 30-30h224c16.569 0 30 13.431 30 30v437c0 16.569-13.431 30-30 30z" fill="#bdf9ff"/><path d="m374.212 7.5h-30c16.569 0 30 13.431 30 30v437c0 16.569-13.431 30-30 30h30c16.569 0 30-13.431 30-30v-437c0-16.569-13.431-30-30-30z" fill="#8cf2ff"/><path d="m374.212 504.5h-224c-16.569 0-30-13.431-30-30v-34.5h284v34.5c0 16.569-13.431 30-30 30z" fill="#8c9eff"/><path d="m374.212 440v34.5c0 16.569-13.431 30-30 30h30c16.569 0 30-13.431 30-30v-34.5z" fill="#7488ed"/><path d="m308.613 464h-92.803c-4.142 0-7.5 3.358-7.5 7.5s3.358 7.5 7.5 7.5h92.803c4.142 0 7.5-3.358 7.5-7.5s-3.358-7.5-7.5-7.5z" fill="#ff3d7a"/><path d="m328.063 47.5h-132c-5.523 0-10-4.477-10-10v-30h152v30c0 5.523-4.477 10-10 10z" fill="#8c9eff"/><path d="m374.212 0h-224c-20.678 0-37.5 16.822-37.5 37.5v437c0 20.678 16.822 37.5 37.5 37.5h224c20.678 0 37.5-16.822 37.5-37.5v-437c0-20.678-16.822-37.5-37.5-37.5zm22.5 474.5c0 12.407-10.093 22.5-22.5 22.5h-224c-12.407 0-22.5-10.093-22.5-22.5v-437c0-12.407 10.093-22.5 22.5-22.5h224c12.407 0 22.5 10.093 22.5 22.5z" fill="#6073d1"/><path d="m449 119v154.258c0 2.209-1.791 4-4 4h-161.572c-1.492 0-2.86.831-3.549 2.155l-22.106 42.511c-.747 1.436-2.801 1.436-3.548 0l-22.106-42.511c-.688-1.324-2.057-2.155-3.549-2.155h-161.57c-2.209 0-4-1.791-4-4v-154.258c0-2.209 1.791-4 4-4h378c2.209 0 4 1.791 4 4z" fill="#ff3d7a"/><path d="m445 115h-30c2.209 0 4 1.791 4 4v154.258c0 2.209-1.791 4-4 4h30c2.209 0 4-1.791 4-4v-154.258c0-2.209-1.791-4-4-4z" fill="#eb3870"/><g fill="#f5f5f5"><path d="m188 233h-68c-3.314 0-6-2.686-6-6v-68c0-3.314 2.686-6 6-6h68c3.314 0 6 2.686 6 6v68c0 3.314-2.686 6-6 6z"/><path d="m227 178.5h160c4.142 0 7.5-3.358 7.5-7.5s-3.358-7.5-7.5-7.5h-160c-4.142 0-7.5 3.358-7.5 7.5s3.358 7.5 7.5 7.5z"/><path d="m387 209.5h-160c-4.142 0-7.5 3.358-7.5 7.5s3.358 7.5 7.5 7.5h160c4.142 0 7.5-3.358 7.5-7.5s-3.358-7.5-7.5-7.5z"/></g></svg>